<svg width="15" height="15" viewBox="0 0 15 15" fill="none" xmlns="http://www.w3.org/2000/svg">
<path d="M7.61617 15H7.6118C5.37367 14.985 3.65305 14.2469 2.4968 12.8069C1.46867 11.525 0.937422 9.74125 0.919922 7.50625V7.49563C0.938672 5.25875 1.4693 3.47687 2.49805 2.19437C3.65305 0.753125 5.37492 0.015 7.61242 0H7.62117C9.33742 0.0125 10.773 0.453125 11.8874 1.31125C12.9355 2.1175 13.6737 3.2675 14.0805 4.72813L12.8055 5.08375C12.1155 2.60875 10.3693 1.34375 7.61555 1.32437C5.7968 1.33812 4.4218 1.90937 3.52805 3.0225C2.6918 4.065 2.25992 5.57125 2.24305 7.5C2.25992 9.42875 2.6918 10.935 3.52867 11.9775C4.42242 13.0919 5.79805 13.6638 7.61617 13.6756C9.25555 13.6631 10.3399 13.2813 11.2412 12.3975C12.2705 11.3894 12.2524 10.1519 11.9224 9.39875C11.7287 8.955 11.3768 8.58625 10.9012 8.305C10.7812 9.15 10.5124 9.83375 10.0987 10.35C9.54492 11.0387 8.76117 11.415 7.76742 11.4688C7.01617 11.5094 6.2918 11.3325 5.73055 10.9681C5.06617 10.5375 4.67742 9.88063 4.63555 9.11563C4.59492 8.37187 4.89055 7.6875 5.4668 7.18938C6.0168 6.71438 6.79117 6.435 7.70617 6.3825C8.3367 6.34386 8.96955 6.37362 9.59367 6.47125C9.51492 6.0075 9.3593 5.63875 9.12492 5.37313C8.8043 5.00688 8.30742 4.82125 7.65055 4.81687H7.63242C7.10492 4.81687 6.38742 4.96188 5.9318 5.64188L4.83367 4.90438C5.44617 3.99563 6.43867 3.49438 7.63242 3.49438H7.65992C9.65617 3.50688 10.8455 4.72875 10.9643 6.86188C11.0322 6.89104 11.0991 6.92063 11.1649 6.95063C12.0962 7.38813 12.7774 8.05125 13.1362 8.86937C13.6343 10.0069 13.6805 11.8631 12.1687 13.3431C11.0124 14.4744 9.60992 14.9856 7.62055 14.9994L7.61617 15ZM8.24305 7.69375C8.09221 7.69375 7.93826 7.69813 7.78117 7.70688C6.63367 7.77125 5.91867 8.29812 5.95867 9.04625C6.00055 9.83125 6.86617 10.1956 7.69867 10.1506C8.46367 10.11 9.45992 9.81125 9.62742 7.83188C9.17216 7.73691 8.7081 7.69061 8.24305 7.69375Z" fill="#0B0B0D"/>
</svg>
