<svg width="130" height="26" viewBox="0 0 130 26" fill="none" xmlns="http://www.w3.org/2000/svg">
<path d="M14.148 25H9.684C5.472 25 2.916 23.02 2.916 18.484V11.428H0.072V6.964H2.916V3.472H8.316V6.964H14.148V11.428H8.316V17.872C8.316 19.672 9 20.14 10.908 20.14H14.148V25ZM21.5705 25H16.1705V6.964H21.1745V11.752H21.4985C22.0025 8.836 23.9105 6.604 27.5465 6.604C31.5785 6.604 33.2345 9.376 33.2345 12.904V15.892H27.8345V14.02C27.8345 12.04 27.0425 11.176 24.8465 11.176C22.4345 11.176 21.5705 12.292 21.5705 14.56V25ZM44.766 25.36C38.754 25.36 34.65 22.408 34.65 16C34.65 10.24 38.718 6.604 44.658 6.604C50.562 6.604 54.486 9.7 54.486 15.352C54.486 16 54.414 16.468 54.342 17.08H39.654C39.798 19.852 41.094 21.04 44.586 21.04C47.79 21.04 48.906 20.212 48.906 18.664V18.304H54.306V18.7C54.306 22.624 50.49 25.36 44.766 25.36ZM44.55 10.816C41.346 10.816 39.978 11.896 39.726 14.236H49.302C49.158 11.86 47.718 10.816 44.55 10.816ZM66.3519 25.36C60.3399 25.36 56.2359 22.408 56.2359 16C56.2359 10.24 60.3039 6.604 66.2439 6.604C72.1479 6.604 76.0719 9.7 76.0719 15.352C76.0719 16 75.9999 16.468 75.9279 17.08H61.2399C61.3839 19.852 62.6799 21.04 66.1719 21.04C69.3759 21.04 70.4919 20.212 70.4919 18.664V18.304H75.8919V18.7C75.8919 22.624 72.0759 25.36 66.3519 25.36ZM66.1359 10.816C62.9319 10.816 61.5639 11.896 61.3119 14.236H70.8879C70.7439 11.86 69.3039 10.816 66.1359 10.816ZM83.7619 25H78.3619V0.879999H83.7619V25ZM91.9884 25H86.5884V6.964H91.5924V12.508H91.9164C92.3844 9.484 94.5444 6.604 99.2604 6.604C104.192 6.604 106.532 9.772 106.532 13.768V25H101.132V15.568C101.132 12.688 99.9444 11.464 96.6324 11.464C93.2124 11.464 91.9884 12.832 91.9884 15.892V25ZM114.664 25H109.264V0.879999H114.664V13.66H118.768L123.376 6.964H129.784L123.196 15.676L129.676 25H123.304L118.804 18.484H114.664V25Z" fill="url(#paint0_linear_353_51)"/>
<defs>
<linearGradient id="paint0_linear_353_51" x1="7.42265" y1="-2.97557" x2="118.578" y2="-2.97557" gradientUnits="userSpaceOnUse">
<stop stop-color="#4AB1F1"/>
<stop offset="0.328125" stop-color="#566CEC"/>
<stop offset="0.65625" stop-color="#D749AF"/>
<stop offset="1" stop-color="#FF7C51"/>
</linearGradient>
</defs>
</svg>
